<svg width="269" height="1121" viewBox="0 0 269 1121" fill="none" xmlns="http://www.w3.org/2000/svg">
<g clip-path="url(#clip0_224_288)">
<path d="M132 3.00001C132 1.34315 133.343 0 135 0C136.657 0 138 1.34315 138 3V1118C138 1119.66 136.657 1121 135 1121C133.343 1121 132 1119.66 132 1118V3.00001Z" fill="#D9D9D9"/>
<path d="M160 966C160 979.807 148.807 991 135 991C121.193 991 110 979.807 110 966C110 952.193 121.193 941 135 941C148.807 941 160 952.193 160 966Z" fill="#0067A6"/>
<path d="M-42 963H312V968H-42V963Z" fill="#0067A6"/>
<path d="M160 526C160 539.807 148.807 551 135 551C121.193 551 110 539.807 110 526C110 512.193 121.193 501 135 501C148.807 501 160 512.193 160 526Z" fill="#0067A6"/>
<path d="M-42 523H312V528H-42V523Z" fill="#0067A6"/>
<path d="M160 158C160 171.807 148.807 183 135 183C121.193 183 110 171.807 110 158C110 144.193 121.193 133 135 133C148.807 133 160 144.193 160 158Z" fill="#0067A6"/>
<path d="M-42 155H312V160H-42V155Z" fill="#0067A6"/>
</g>
<defs>
<clipPath id="clip0_224_288">
<rect width="269" height="1121" fill="white"/>
</clipPath>
</defs>
</svg>
