<svg width="269" height="1121" viewBox="0 0 269 1121" fill="none" xmlns="http://www.w3.org/2000/svg">
<g clip-path="url(#clip0_333_202)">
<path d="M132 3.00001C132 1.34315 133.343 0 135 0C136.657 0 138 1.34315 138 3V1118C138 1119.66 136.657 1121 135 1121C133.343 1121 132 1119.66 132 1118V3.00001Z" fill="#D9D9D9"/>
<path d="M160 962C160 975.807 148.807 987 135 987C121.193 987 110 975.807 110 962C110 948.193 121.193 937 135 937C148.807 937 160 948.193 160 962Z" fill="#0067A6"/>
<path d="M-42 959H312V964H-42V959Z" fill="#0067A6"/>
<path d="M160 562C160 575.807 148.807 587 135 587C121.193 587 110 575.807 110 562C110 548.193 121.193 537 135 537C148.807 537 160 548.193 160 562Z" fill="#0067A6"/>
<path d="M-42 559H312V564H-42V559Z" fill="#0067A6"/>
<path d="M160 158C160 171.807 148.807 183 135 183C121.193 183 110 171.807 110 158C110 144.193 121.193 133 135 133C148.807 133 160 144.193 160 158Z" fill="#0067A6"/>
<path d="M-42 155H312V160H-42V155Z" fill="#0067A6"/>
</g>
<defs>
<clipPath id="clip0_333_202">
<rect width="269" height="1121" fill="white"/>
</clipPath>
</defs>
</svg>
