<svg width="68" height="68" viewBox="0 0 68 68" fill="none" xmlns="http://www.w3.org/2000/svg">
<circle cx="33.6" cy="33.6" r="31.68" transform="matrix(-1 0 0 1 67.2002 0)" fill="white" stroke="#0067A6" stroke-width="3.84"/>
<path d="M46.96 32.3998H48.88V36.2398H46.96V34.3198V32.3998ZM18.0823 35.6775C17.3325 34.9277 17.3325 33.712 18.0823 32.9622L30.3011 20.7434C31.0509 19.9936 32.2666 19.9936 33.0164 20.7434C33.7662 21.4932 33.7662 22.7089 33.0164 23.4587L22.1552 34.3198L33.0164 45.181C33.7662 45.9308 33.7662 47.1465 33.0164 47.8963C32.2666 48.6461 31.0509 48.6461 30.3011 47.8963L18.0823 35.6775ZM46.96 34.3198V36.2398H19.44V34.3198V32.3998H46.96V34.3198Z" fill="#0067A6"/>
</svg>
