<svg width="155" height="69" viewBox="0 0 155 69" fill="none" xmlns="http://www.w3.org/2000/svg">
<path d="M33.2998 3.15039C49.8533 3.15039 63.4501 17.0527 63.4502 34.4248C63.4502 51.797 49.8534 65.7002 33.2998 65.7002C16.7463 65.7001 3.15039 51.7969 3.15039 34.4248C3.15049 17.0528 16.7464 3.1505 33.2998 3.15039Z" stroke="#0067A6" stroke-width="6.3"/>
<path d="M25.5228 39.2139C25.5228 38.8486 25.4691 38.521 25.3617 38.231C25.2543 37.9302 25.0556 37.6509 24.7655 37.3931C24.4755 37.1353 24.0565 36.8774 23.5087 36.6196C22.9716 36.3511 22.2626 36.0718 21.3817 35.7817C20.3505 35.438 19.3568 35.0513 18.4008 34.6216C17.4447 34.1812 16.5907 33.6709 15.8388 33.0908C15.0868 32.5 14.4906 31.8125 14.0502 31.0283C13.6098 30.2334 13.3895 29.3096 13.3895 28.2568C13.3895 27.2471 13.6151 26.3394 14.0663 25.5337C14.5175 24.7173 15.1459 24.0244 15.9516 23.4551C16.768 22.875 17.724 22.4346 18.8197 22.1338C19.9154 21.8223 21.1132 21.6665 22.413 21.6665C24.1317 21.6665 25.6464 21.9673 26.9569 22.5688C28.2782 23.1597 29.3095 24.0029 30.0507 25.0986C30.8026 26.1836 31.1786 27.4673 31.1786 28.9497H25.5551C25.5551 28.3589 25.4315 27.8379 25.1845 27.3867C24.9481 26.9355 24.5883 26.5811 24.1049 26.3232C23.6215 26.0654 23.0145 25.9365 22.2841 25.9365C21.5751 25.9365 20.9789 26.0439 20.4955 26.2588C20.0121 26.4736 19.6469 26.7637 19.3998 27.1289C19.1527 27.4834 19.0292 27.8755 19.0292 28.3052C19.0292 28.6597 19.1259 28.9819 19.3192 29.272C19.5233 29.5513 19.808 29.8145 20.1732 30.0615C20.5492 30.3086 21.0004 30.5449 21.5267 30.7705C22.0639 30.9961 22.6654 31.2163 23.3314 31.4312C24.5775 31.8286 25.684 32.2744 26.6508 32.7686C27.6283 33.252 28.4501 33.8052 29.1161 34.4282C29.7929 35.0405 30.3031 35.7388 30.6469 36.5229C31.0014 37.3071 31.1786 38.1934 31.1786 39.1816C31.1786 40.2344 30.9745 41.1689 30.5663 41.9854C30.1581 42.8018 29.5726 43.4946 28.81 44.064C28.0473 44.6226 27.1342 45.0469 26.0707 45.3369C25.0072 45.627 23.8202 45.772 22.5097 45.772C21.3065 45.772 20.1195 45.6216 18.9486 45.3208C17.7885 45.0093 16.7357 44.5366 15.7904 43.9028C14.8451 43.2583 14.0878 42.4365 13.5184 41.4375C12.9599 40.4277 12.6806 39.23 12.6806 37.8442H18.3524C18.3524 38.5317 18.4437 39.1118 18.6264 39.5845C18.809 40.0571 19.0775 40.4385 19.432 40.7285C19.7865 41.0078 20.2216 41.2119 20.7372 41.3408C21.2528 41.459 21.8436 41.5181 22.5097 41.5181C23.2294 41.5181 23.8095 41.416 24.2499 41.2119C24.6903 40.9971 25.0126 40.7178 25.2167 40.374C25.4208 40.0195 25.5228 39.6328 25.5228 39.2139ZM53.286 32.9136V42.5493C52.8886 42.9897 52.2763 43.4624 51.4491 43.9673C50.6327 44.4614 49.6015 44.8857 48.3554 45.2402C47.1093 45.5947 45.643 45.772 43.9564 45.772C42.3988 45.772 40.9862 45.5249 39.7186 45.0308C38.4511 44.5259 37.3607 43.79 36.4476 42.8232C35.5453 41.8457 34.8471 40.6533 34.3529 39.2461C33.8695 37.8281 33.6278 36.2061 33.6278 34.3799V33.0747C33.6278 31.2485 33.8749 29.6265 34.369 28.2085C34.8632 26.7905 35.556 25.5981 36.4476 24.6313C37.35 23.6538 38.4081 22.9126 39.622 22.4077C40.8466 21.9028 42.1893 21.6504 43.6503 21.6504C45.8095 21.6504 47.5658 21.9941 48.9193 22.6816C50.2728 23.3584 51.2987 24.2983 51.997 25.5015C52.6952 26.6938 53.1195 28.0742 53.2699 29.6426H47.8397C47.7323 28.8691 47.5282 28.2139 47.2274 27.6768C46.9374 27.1289 46.5184 26.7153 45.9706 26.436C45.4227 26.146 44.7138 26.001 43.8436 26.001C43.1669 26.001 42.5492 26.146 41.9906 26.436C41.4428 26.7261 40.9755 27.1665 40.5888 27.7573C40.202 28.3374 39.9013 29.0679 39.6864 29.9487C39.4823 30.8296 39.3803 31.8608 39.3803 33.0425V34.3799C39.3803 35.5508 39.4769 36.5767 39.6703 37.4575C39.8744 38.3384 40.1752 39.0742 40.5726 39.665C40.9809 40.2451 41.4965 40.6855 42.1195 40.9863C42.7533 41.2764 43.4999 41.4214 44.3593 41.4214C44.9608 41.4214 45.4765 41.373 45.9061 41.2764C46.3358 41.1689 46.6903 41.04 46.9696 40.8896C47.2597 40.7285 47.4799 40.5781 47.6303 40.4385V36.7969H43.6986V32.9136H53.286Z" fill="#0067A6"/>
<path d="M85.3207 21.8389V45.2998H80.5028V21.8389H85.3207ZM92.5395 21.8389V25.6255H73.3969V21.8389H92.5395ZM101.515 45.6221C100.161 45.6221 98.9472 45.4072 97.8729 44.9775C96.7987 44.5371 95.8856 43.9302 95.1337 43.1567C94.3925 42.3833 93.8231 41.4863 93.4257 40.4658C93.0282 39.4346 92.8295 38.3389 92.8295 37.1787V36.5342C92.8295 35.2129 93.0175 34.0044 93.3935 32.9087C93.7694 31.813 94.3065 30.8623 95.0048 30.0566C95.7138 29.251 96.5731 28.6333 97.5829 28.2036C98.5927 27.7632 99.7313 27.543 100.999 27.543C102.234 27.543 103.33 27.7471 104.286 28.1553C105.242 28.5635 106.042 29.1436 106.687 29.8955C107.342 30.6475 107.836 31.5498 108.169 32.6025C108.502 33.6445 108.669 34.8047 108.669 36.083V38.0166H94.8114V34.9229H104.109V34.5684C104.109 33.9238 103.991 33.3491 103.754 32.8442C103.529 32.3286 103.185 31.9204 102.723 31.6196C102.261 31.3188 101.67 31.1685 100.951 31.1685C100.338 31.1685 99.8119 31.3027 99.3715 31.5713C98.9311 31.8398 98.5712 32.2158 98.2919 32.6992C98.0233 33.1826 97.8192 33.752 97.6796 34.4072C97.5507 35.0518 97.4862 35.7607 97.4862 36.5342V37.1787C97.4862 37.877 97.5829 38.5215 97.7763 39.1123C97.9804 39.7031 98.265 40.2134 98.6303 40.6431C99.0062 41.0728 99.4574 41.4058 99.9838 41.6421C100.521 41.8784 101.128 41.9966 101.805 41.9966C102.642 41.9966 103.421 41.8354 104.141 41.5132C104.871 41.1802 105.5 40.6807 106.026 40.0146L108.282 42.4639C107.917 42.9902 107.417 43.4951 106.784 43.9785C106.161 44.4619 105.409 44.8594 104.528 45.1709C103.647 45.4717 102.642 45.6221 101.515 45.6221ZM118.514 41.9966C119.083 41.9966 119.588 41.8892 120.029 41.6743C120.469 41.4487 120.813 41.1372 121.06 40.7397C121.318 40.3315 121.452 39.8535 121.463 39.3057H125.829C125.819 40.5303 125.491 41.6206 124.847 42.5767C124.202 43.522 123.337 44.2686 122.252 44.8164C121.167 45.3535 119.954 45.6221 118.611 45.6221C117.257 45.6221 116.076 45.3965 115.066 44.9453C114.067 44.4941 113.234 43.8711 112.568 43.0762C111.902 42.2705 111.403 41.3359 111.07 40.2725C110.737 39.1982 110.57 38.0488 110.57 36.8242V36.3569C110.57 35.1216 110.737 33.9722 111.07 32.9087C111.403 31.8345 111.902 30.8999 112.568 30.105C113.234 29.2993 114.067 28.6709 115.066 28.2197C116.065 27.7686 117.236 27.543 118.579 27.543C120.007 27.543 121.259 27.8169 122.333 28.3647C123.418 28.9126 124.267 29.6968 124.879 30.7173C125.502 31.7271 125.819 32.9248 125.829 34.3105H121.463C121.452 33.7305 121.329 33.2041 121.092 32.7314C120.867 32.2588 120.534 31.8828 120.093 31.6035C119.663 31.3135 119.132 31.1685 118.498 31.1685C117.821 31.1685 117.268 31.3135 116.838 31.6035C116.409 31.8828 116.076 32.2695 115.839 32.7637C115.603 33.2471 115.436 33.8003 115.34 34.4233C115.254 35.0356 115.211 35.6802 115.211 36.3569V36.8242C115.211 37.501 115.254 38.1509 115.34 38.7739C115.426 39.397 115.587 39.9502 115.823 40.4336C116.07 40.917 116.409 41.2983 116.838 41.5776C117.268 41.8569 117.827 41.9966 118.514 41.9966ZM133.048 20.5498V45.2998H128.408V20.5498H133.048ZM132.388 35.9702H131.115C131.125 34.7563 131.287 33.6392 131.598 32.6187C131.91 31.5874 132.355 30.6958 132.935 29.9438C133.516 29.1812 134.208 28.5903 135.014 28.1714C135.83 27.7524 136.733 27.543 137.721 27.543C138.58 27.543 139.359 27.6665 140.058 27.9136C140.767 28.1499 141.373 28.5366 141.878 29.0737C142.394 29.6001 142.791 30.293 143.071 31.1523C143.35 32.0117 143.49 33.0537 143.49 34.2783V45.2998H138.817V34.2461C138.817 33.4727 138.704 32.8657 138.478 32.4253C138.264 31.9741 137.947 31.6572 137.528 31.4746C137.12 31.2812 136.615 31.1846 136.013 31.1846C135.347 31.1846 134.778 31.3081 134.305 31.5552C133.843 31.8022 133.473 32.146 133.193 32.5864C132.914 33.0161 132.71 33.521 132.581 34.1011C132.452 34.6812 132.388 35.3042 132.388 35.9702Z" fill="#00578E"/>
</svg>
