<svg width="60" height="60" viewBox="0 0 60 60" fill="none" xmlns="http://www.w3.org/2000/svg">
<g clip-path="url(#clip0_93_234)">
<circle cx="30" cy="30" r="26.85" stroke="#0067A6" stroke-width="6.3"/>
<path d="M22.923 34.3311C22.923 33.999 22.8742 33.7012 22.7766 33.4375C22.6789 33.1641 22.4982 32.9102 22.2346 32.6758C21.9709 32.4414 21.59 32.207 21.092 31.9727C20.6037 31.7285 19.9592 31.4746 19.1584 31.2109C18.2209 30.8984 17.3176 30.5469 16.4484 30.1562C15.5793 29.7559 14.8029 29.292 14.1193 28.7646C13.4357 28.2275 12.8938 27.6025 12.4934 26.8896C12.093 26.167 11.8928 25.3271 11.8928 24.3701C11.8928 23.4521 12.0979 22.627 12.508 21.8945C12.9182 21.1523 13.4895 20.5225 14.2219 20.0049C14.9641 19.4775 15.8332 19.0771 16.8293 18.8037C17.8254 18.5205 18.9143 18.3789 20.0959 18.3789C21.6584 18.3789 23.0354 18.6523 24.2268 19.1992C25.4279 19.7363 26.3654 20.5029 27.0393 21.499C27.7229 22.4854 28.0647 23.6523 28.0647 25H22.9523C22.9523 24.4629 22.84 23.9893 22.6154 23.5791C22.4006 23.1689 22.0734 22.8467 21.634 22.6123C21.1945 22.3779 20.6428 22.2607 19.9787 22.2607C19.3342 22.2607 18.7922 22.3584 18.3527 22.5537C17.9133 22.749 17.5813 23.0127 17.3566 23.3447C17.132 23.667 17.0197 24.0234 17.0197 24.4141C17.0197 24.7363 17.1076 25.0293 17.2834 25.293C17.4689 25.5469 17.7277 25.7861 18.0598 26.0107C18.4016 26.2354 18.8117 26.4502 19.2902 26.6553C19.7785 26.8604 20.3254 27.0605 20.9309 27.2559C22.0637 27.6172 23.0695 28.0225 23.9484 28.4717C24.8371 28.9111 25.5842 29.4141 26.1897 29.9805C26.8049 30.5371 27.2688 31.1719 27.5813 31.8848C27.9035 32.5977 28.0647 33.4033 28.0647 34.3018C28.0647 35.2588 27.8791 36.1084 27.508 36.8506C27.1369 37.5928 26.6047 38.2227 25.9113 38.7402C25.218 39.248 24.3879 39.6338 23.4211 39.8975C22.4543 40.1611 21.3752 40.293 20.1838 40.293C19.09 40.293 18.0109 40.1562 16.9465 39.8828C15.8918 39.5996 14.9348 39.1699 14.0754 38.5938C13.216 38.0078 12.5275 37.2607 12.01 36.3525C11.5022 35.4346 11.2482 34.3457 11.2482 33.0859H16.4045C16.4045 33.7109 16.4875 34.2383 16.6535 34.668C16.8195 35.0977 17.0637 35.4443 17.3859 35.708C17.7082 35.9619 18.1037 36.1475 18.5725 36.2646C19.0412 36.3721 19.5783 36.4258 20.1838 36.4258C20.8381 36.4258 21.3654 36.333 21.7658 36.1475C22.1662 35.9521 22.4592 35.6982 22.6447 35.3857C22.8303 35.0635 22.923 34.7119 22.923 34.3311ZM48.1623 28.6035V37.3633C47.801 37.7637 47.2443 38.1934 46.4924 38.6523C45.7502 39.1016 44.8127 39.4873 43.6799 39.8096C42.5471 40.1318 41.2141 40.293 39.6809 40.293C38.2648 40.293 36.9807 40.0684 35.8283 39.6191C34.676 39.1602 33.6848 38.4912 32.8547 37.6123C32.0344 36.7236 31.3996 35.6396 30.9504 34.3604C30.5109 33.0713 30.2912 31.5967 30.2912 29.9365V28.75C30.2912 27.0898 30.5158 25.6152 30.965 24.3262C31.4143 23.0371 32.0441 21.9531 32.8547 21.0742C33.675 20.1855 34.6369 19.5117 35.7404 19.0527C36.8537 18.5938 38.0744 18.3643 39.4025 18.3643C41.3654 18.3643 42.9621 18.6768 44.1926 19.3018C45.423 19.917 46.3557 20.7715 46.9904 21.8652C47.6252 22.9492 48.0109 24.2041 48.1477 25.6299H43.2111C43.1135 24.9268 42.9279 24.3311 42.6545 23.8428C42.3908 23.3447 42.01 22.9688 41.5119 22.7148C41.0139 22.4512 40.3693 22.3193 39.5783 22.3193C38.9631 22.3193 38.4016 22.4512 37.8938 22.7148C37.3957 22.9785 36.9709 23.3789 36.6193 23.916C36.2678 24.4434 35.9943 25.1074 35.799 25.9082C35.6135 26.709 35.5207 27.6465 35.5207 28.7207V29.9365C35.5207 31.001 35.6086 31.9336 35.7844 32.7344C35.9699 33.5352 36.2434 34.2041 36.6047 34.7412C36.9758 35.2686 37.4445 35.6689 38.0109 35.9424C38.5871 36.2061 39.2658 36.3379 40.0471 36.3379C40.5939 36.3379 41.0627 36.2939 41.4533 36.2061C41.8439 36.1084 42.1662 35.9912 42.4201 35.8545C42.6838 35.708 42.884 35.5713 43.0207 35.4443V32.1338H39.4465V28.6035H48.1623Z" fill="#0067A6"/>
</g>
<defs>
<clipPath id="clip0_93_234">
<rect width="60" height="60" fill="white"/>
</clipPath>
</defs>
</svg>
