<svg width="68" height="68" viewBox="0 0 68 68" fill="none" xmlns="http://www.w3.org/2000/svg">
<circle cx="33.6" cy="33.6" r="31.68" fill="white" stroke="#0067A6" stroke-width="3.84"/>
<path d="M20.2402 32.3998H18.3202V36.2398H20.2402V34.3198V32.3998ZM49.1179 35.6775C49.8677 34.9277 49.8677 33.712 49.1179 32.9622L36.8991 20.7434C36.1493 19.9936 34.9336 19.9936 34.1838 20.7434C33.434 21.4932 33.434 22.7089 34.1838 23.4587L45.0449 34.3198L34.1838 45.181C33.434 45.9308 33.434 47.1465 34.1838 47.8963C34.9336 48.6461 36.1493 48.6461 36.8991 47.8963L49.1179 35.6775ZM20.2402 34.3198V36.2398H47.7602V34.3198V32.3998H20.2402V34.3198Z" fill="#0067A6"/>
</svg>
